<svg id="Layer_1" data-name="Layer 1" xmlns="http://www.w3.org/2000/svg" viewBox="0 0 753 1055.82"><defs><style>.cls-1{stroke:#000;stroke-miterlimit:10;stroke-width:2px;}</style></defs><path class="cls-1" d="M390,970.41a4.74,4.74,0,1,1-4.74,4.74A4.74,4.74,0,0,1,390,970.41Z" transform="translate(-13.5 -12.09)"/><path class="cls-1" d="M390,1057.44a4.74,4.74,0,1,1-4.74,4.74A4.74,4.74,0,0,1,390,1057.44Z" transform="translate(-13.5 -12.09)"/><path class="cls-1" d="M315.85,970.41a4.74,4.74,0,1,1-4.74,4.74A4.74,4.74,0,0,1,315.85,970.41Z" transform="translate(-13.5 -12.09)"/><path class="cls-1" d="M315.85,1057.44a4.74,4.74,0,1,1-4.74,4.74A4.74,4.74,0,0,1,315.85,1057.44Z" transform="translate(-13.5 -12.09)"/><path class="cls-1" d="M241.69,970.41a4.74,4.74,0,1,1-4.73,4.74A4.74,4.74,0,0,1,241.69,970.41Z" transform="translate(-13.5 -12.09)"/><path class="cls-1" d="M241.69,1057.44a4.74,4.74,0,1,1-4.73,4.74A4.74,4.74,0,0,1,241.69,1057.44Z" transform="translate(-13.5 -12.09)"/><path class="cls-1" d="M167.54,970.41a4.74,4.74,0,1,1-4.73,4.74A4.74,4.74,0,0,1,167.54,970.41Z" transform="translate(-13.5 -12.09)"/><path class="cls-1" d="M167.54,1057.44a4.74,4.74,0,1,1-4.73,4.74A4.74,4.74,0,0,1,167.54,1057.44Z" transform="translate(-13.5 -12.09)"/><path class="cls-1" d="M93.39,970.41a4.74,4.74,0,1,1-4.74,4.74A4.74,4.74,0,0,1,93.39,970.41Z" transform="translate(-13.5 -12.09)"/><path class="cls-1" d="M93.39,1057.44a4.74,4.74,0,1,1-4.74,4.74A4.74,4.74,0,0,1,93.39,1057.44Z" transform="translate(-13.5 -12.09)"/><path class="cls-1" d="M760.76,13.09A4.74,4.74,0,1,1,756,17.82,4.74,4.74,0,0,1,760.76,13.09Z" transform="translate(-13.5 -12.09)"/><path class="cls-1" d="M760.76,100.12a4.74,4.74,0,1,1-4.73,4.73A4.74,4.74,0,0,1,760.76,100.12Z" transform="translate(-13.5 -12.09)"/><path class="cls-1" d="M760.76,187.15a4.74,4.74,0,1,1-4.73,4.73A4.74,4.74,0,0,1,760.76,187.15Z" transform="translate(-13.5 -12.09)"/><path class="cls-1" d="M760.76,274.18a4.74,4.74,0,1,1-4.73,4.73A4.74,4.74,0,0,1,760.76,274.18Z" transform="translate(-13.5 -12.09)"/><path class="cls-1" d="M760.76,361.21a4.74,4.74,0,1,1-4.73,4.73A4.74,4.74,0,0,1,760.76,361.21Z" transform="translate(-13.5 -12.09)"/><path class="cls-1" d="M760.76,448.23A4.74,4.74,0,1,1,756,453,4.74,4.74,0,0,1,760.76,448.23Z" transform="translate(-13.5 -12.09)"/><path class="cls-1" d="M760.76,535.26A4.74,4.74,0,1,1,756,540,4.74,4.74,0,0,1,760.76,535.26Z" transform="translate(-13.5 -12.09)"/><path class="cls-1" d="M760.76,622.29A4.74,4.74,0,1,1,756,627,4.74,4.74,0,0,1,760.76,622.29Z" transform="translate(-13.5 -12.09)"/><path class="cls-1" d="M760.76,709.32a4.74,4.74,0,1,1-4.73,4.74A4.74,4.74,0,0,1,760.76,709.32Z" transform="translate(-13.5 -12.09)"/><path class="cls-1" d="M760.76,796.35a4.74,4.74,0,1,1-4.73,4.74A4.74,4.74,0,0,1,760.76,796.35Z" transform="translate(-13.5 -12.09)"/><path class="cls-1" d="M760.76,883.38a4.74,4.74,0,1,1-4.73,4.74A4.74,4.74,0,0,1,760.76,883.38Z" transform="translate(-13.5 -12.09)"/><path class="cls-1" d="M760.76,970.41a4.74,4.74,0,1,1-4.73,4.74A4.74,4.74,0,0,1,760.76,970.41Z" transform="translate(-13.5 -12.09)"/><path class="cls-1" d="M760.76,1057.44a4.74,4.74,0,1,1-4.73,4.74A4.74,4.74,0,0,1,760.76,1057.44Z" transform="translate(-13.5 -12.09)"/><circle class="cls-1" cx="673.11" cy="5.74" r="4.74"/><path class="cls-1" d="M686.61,100.12a4.74,4.74,0,1,1-4.74,4.73A4.74,4.74,0,0,1,686.61,100.12Z" transform="translate(-13.5 -12.09)"/><path class="cls-1" d="M686.61,187.15a4.74,4.74,0,1,1-4.74,4.73A4.74,4.74,0,0,1,686.61,187.15Z" transform="translate(-13.5 -12.09)"/><path class="cls-1" d="M686.61,274.18a4.74,4.74,0,1,1-4.74,4.73A4.74,4.74,0,0,1,686.61,274.18Z" transform="translate(-13.5 -12.09)"/><circle class="cls-1" cx="673.11" cy="353.85" r="4.74"/><circle class="cls-1" cx="673.11" cy="440.88" r="4.74"/><circle class="cls-1" cx="673.11" cy="527.91" r="4.74"/><circle class="cls-1" cx="673.11" cy="614.94" r="4.74"/><circle class="cls-1" cx="673.11" cy="701.97" r="4.74"/><circle class="cls-1" cx="673.11" cy="789" r="4.74"/><circle class="cls-1" cx="673.11" cy="876.03" r="4.74"/><path class="cls-1" d="M686.61,970.41a4.74,4.74,0,1,1-4.74,4.74A4.74,4.74,0,0,1,686.61,970.41Z" transform="translate(-13.5 -12.09)"/><path class="cls-1" d="M686.61,1057.44a4.74,4.74,0,1,1-4.74,4.74A4.74,4.74,0,0,1,686.61,1057.44Z" transform="translate(-13.5 -12.09)"/><path class="cls-1" d="M612.46,13.09a4.74,4.74,0,1,1-4.74,4.73A4.73,4.73,0,0,1,612.46,13.09Z" transform="translate(-13.5 -12.09)"/><path class="cls-1" d="M612.46,100.12a4.74,4.74,0,1,1-4.74,4.73A4.73,4.73,0,0,1,612.46,100.12Z" transform="translate(-13.5 -12.09)"/><path class="cls-1" d="M612.46,187.15a4.74,4.74,0,1,1-4.74,4.73A4.73,4.73,0,0,1,612.46,187.15Z" transform="translate(-13.5 -12.09)"/><path class="cls-1" d="M612.46,274.18a4.74,4.74,0,1,1-4.74,4.73A4.73,4.73,0,0,1,612.46,274.18Z" transform="translate(-13.5 -12.09)"/><path class="cls-1" d="M612.46,361.21a4.74,4.74,0,1,1-4.74,4.73A4.73,4.73,0,0,1,612.46,361.21Z" transform="translate(-13.5 -12.09)"/><path class="cls-1" d="M612.46,448.23a4.74,4.74,0,1,1-4.74,4.74A4.74,4.74,0,0,1,612.46,448.23Z" transform="translate(-13.5 -12.09)"/><path class="cls-1" d="M612.46,535.26a4.74,4.74,0,1,1-4.74,4.74A4.74,4.74,0,0,1,612.46,535.26Z" transform="translate(-13.5 -12.09)"/><path class="cls-1" d="M612.46,622.29a4.74,4.74,0,1,1-4.74,4.74A4.74,4.74,0,0,1,612.46,622.29Z" transform="translate(-13.5 -12.09)"/><path class="cls-1" d="M612.46,709.32a4.74,4.74,0,1,1-4.74,4.74A4.74,4.74,0,0,1,612.46,709.32Z" transform="translate(-13.5 -12.09)"/><path class="cls-1" d="M612.46,796.35a4.74,4.74,0,1,1-4.74,4.74A4.74,4.74,0,0,1,612.46,796.35Z" transform="translate(-13.5 -12.09)"/><path class="cls-1" d="M612.46,883.38a4.74,4.74,0,1,1-4.74,4.74A4.74,4.74,0,0,1,612.46,883.38Z" transform="translate(-13.5 -12.09)"/><path class="cls-1" d="M612.46,970.41a4.74,4.74,0,1,1-4.74,4.74A4.74,4.74,0,0,1,612.46,970.41Z" transform="translate(-13.5 -12.09)"/><path class="cls-1" d="M612.46,1057.44a4.74,4.74,0,1,1-4.74,4.74A4.74,4.74,0,0,1,612.46,1057.44Z" transform="translate(-13.5 -12.09)"/><path class="cls-1" d="M538.31,970.41a4.74,4.74,0,1,1-4.74,4.74A4.74,4.74,0,0,1,538.31,970.41Z" transform="translate(-13.5 -12.09)"/><path class="cls-1" d="M538.31,1057.44a4.74,4.74,0,1,1-4.74,4.74A4.74,4.74,0,0,1,538.31,1057.44Z" transform="translate(-13.5 -12.09)"/><path class="cls-1" d="M464.15,970.41a4.74,4.74,0,1,1-4.73,4.74A4.74,4.74,0,0,1,464.15,970.41Z" transform="translate(-13.5 -12.09)"/><path class="cls-1" d="M464.15,1057.44a4.74,4.74,0,1,1-4.73,4.74A4.74,4.74,0,0,1,464.15,1057.44Z" transform="translate(-13.5 -12.09)"/><path class="cls-1" d="M19.24,970.41a4.74,4.74,0,1,1-4.74,4.74A4.74,4.74,0,0,1,19.24,970.41Z" transform="translate(-13.5 -12.09)"/><path class="cls-1" d="M19.24,1057.44a4.74,4.74,0,1,1-4.74,4.74A4.74,4.74,0,0,1,19.24,1057.44Z" transform="translate(-13.5 -12.09)"/></svg>